<?xml version="1.0" encoding="UTF-8"?>
<svg width="90px" height="90px" viewBox="0 0 90 90" version="1.1" xmlns="http://www.w3.org/2000/svg" xmlns:xlink="http://www.w3.org/1999/xlink">
    <!-- Generator: Sketch 51.3 (57544) - http://www.bohemiancoding.com/sketch -->
    <title>02-drinking-icon</title>
    <desc>Created with Sketch.</desc>
    <defs></defs>
    <g id="02-drinking-icon" stroke="none" stroke-width="1" fill="none" fill-rule="evenodd">
        <g id="noun_drinking_154888" transform="translate(0.000000, 5.000000)" fill="#000000" fill-rule="nonzero">
            <path d="M21.2556122,27.1028571 C14.5065306,23.1052041 12.2822449,14.4018367 16.2716327,7.66653061 C20.267449,0.921122449 28.9662245,-1.30959184 35.7162245,2.68438776 C42.4506122,6.67653061 44.6831633,15.379898 40.6873469,22.1253061 C36.6970408,28.8633673 27.9909184,31.0913265 21.2556122,27.1028571 Z" id="Shape"></path>
            <path d="M62.5591837,2.4327551 L43.2440816,25.840102 L54.0018367,33.1144898 L49.1473469,43.9971429 C49.1473469,43.9971429 25.6940816,32.7113265 25.525102,32.6470408 C22.0013265,30.7579592 16.1641837,30.2813265 11.7321429,33.334898 C-0.435306122,42.1402041 -1.5694898,64.9395918 2.14897959,80.4756122 L43.7326531,80.4756122 L36.8072449,55.3591837 L24.4460204,49.4063265 C23.8463265,49.1170408 23.5946939,48.3979592 23.884898,47.7973469 C24.1741837,47.1985714 24.895102,46.9460204 25.4938776,47.2362245 L49.5817347,58.8379592 C50.4734694,59.2585714 51.4368367,59.4734694 52.4038776,59.4734694 C53.1707143,59.4734694 53.937551,59.3403061 54.6713265,59.0712245 C56.3445918,58.4595918 57.6982653,57.195 58.4246939,55.5676531 L65.0966327,40.6157143 L75.0232653,47.3271429 L89.6941837,29.5503061 L62.5591837,2.4327551 Z M69.9171429,29.8046939 L70.9888776,27.4040816 C72.4720408,24.0795918 70.9787755,20.1811224 67.6542857,18.6979592 C64.3288776,17.2147959 60.4313265,18.7071429 58.9481633,22.032551 L55.5612245,29.6210204 L48.7873469,25.0402041 L62.8273469,8.02653061 L84.6064286,29.7918367 L84.5963265,29.8037755 L69.9171429,29.8037755 L69.9171429,29.8046939 Z" id="Shape"></path>
        </g>
    </g>
</svg>