<?xml version="1.0" encoding="UTF-8"?>
<svg width="90px" height="90px" viewBox="0 0 90 90" version="1.1" xmlns="http://www.w3.org/2000/svg" xmlns:xlink="http://www.w3.org/1999/xlink">
    <!-- Generator: Sketch 51.3 (57544) - http://www.bohemiancoding.com/sketch -->
    <title>02-milking-icon</title>
    <desc>Created with Sketch.</desc>
    <defs></defs>
    <g id="02-milking-icon" stroke="none" stroke-width="1" fill="none" fill-rule="evenodd">
        <g id="noun_Milking_304504" transform="translate(17.000000, 0.000000)" fill="#000000" fill-rule="nonzero">
            <path d="M51.915,0 L28,0 L4.085,0 C6.351,3.811 9.5,7.035 13.251,9.388 L11.87,12.393 C11.192,13.868 11.838,15.614 13.313,16.292 C13.711,16.475 14.128,16.561 14.539,16.561 C15.652,16.561 16.717,15.926 17.212,14.848 L18.537,11.964 C20.608,12.714 22.792,13.226 25.059,13.465 L25.059,17.026 C25.059,18.65 26.375,19.966 27.999,19.966 C29.623,19.966 30.939,18.65 30.939,17.026 L30.939,13.465 C33.206,13.227 35.39,12.714 37.461,11.964 L38.786,14.848 C39.281,15.926 40.346,16.561 41.459,16.561 C41.87,16.561 42.287,16.475 42.685,16.292 C44.16,15.614 44.806,13.868 44.128,12.393 L42.747,9.388 C46.499,7.035 49.649,3.811 51.915,0 Z" id="Shape"></path>
            <path d="M29.509,25.595 C29.317,25.327 28.723,24.468 28,24.468 C27.277,24.468 26.683,25.327 26.491,25.595 C25.395,27.122 23.618,29.594 23.618,32.012 C23.618,37.298 28.001,37.084 28.001,37.084 C28.001,37.084 32.384,37.297 32.384,32.012 C32.383,29.594 30.605,27.122 29.509,25.595 Z" id="Shape"></path>
            <path d="M53.158,43.349 L2.842,43.349 C0.928,43.349 -0.315,44.881 0.079,46.754 L8.466,86.594 C8.86,88.468 10.749,90 12.663,90 L43.337,90 C45.251,90 47.14,88.468 47.534,86.595 L55.921,46.755 C56.316,44.881 55.072,43.349 53.158,43.349 Z M44.244,83.239 C43.916,84.797 42.346,86.071 40.754,86.071 L15.246,86.071 C13.654,86.071 12.084,84.797 11.756,83.239 L7.106,61.149 C28,65.242 30.739,53.375 49.515,58.201 L44.244,83.239 Z" id="Shape"></path>
        </g>
    </g>
</svg>