<?xml version="1.0" encoding="utf-8"?>
<!-- Generator: Adobe Illustrator 16.0.0, SVG Export Plug-In . SVG Version: 6.00 Build 0)  -->
<!DOCTYPE svg PUBLIC "-//W3C//DTD SVG 1.1//EN" "http://www.w3.org/Graphics/SVG/1.1/DTD/svg11.dtd">
<svg version="1.1" id="Logo_4_lignes" xmlns="http://www.w3.org/2000/svg" xmlns:xlink="http://www.w3.org/1999/xlink" x="0px"
	 y="0px" width="235.275px" height="70.87px" viewBox="0 0 235.275 70.87" enable-background="new 0 0 235.275 70.87"
	 xml:space="preserve">
<rect fill="none" width="235.275" height="70.866"/>
<g>
	<rect fill="#E30714" width="34.016" height="70.865"/>
	<g>
		<g>
			<g>
				<g>
					<path fill="#FFFFFF" d="M26.19,57.666h-7.392c-1.646,0-3.376,0.26-3.376,2.756c0,0.941,0.256,1.498,0.619,1.922
						c0.705,0.834,1.88,1.004,2.712,1.004h7.437v1.221H10.741v-1.221h5.516c-0.62-0.125-1.902-1.152-1.902-3.139
						c0-1.537,0.576-2.629,1.324-3.119c0.813-0.557,1.772-0.643,3.075-0.643h7.437V57.666z"/>
					<path fill="#FFFFFF" d="M20.721,53.352c0,0,0.214,0,0.406,0c1.068-0.064,4.038-0.365,4.038-4.059
						c0-2.256-1.608-3.408-1.608-3.408l1.502,0.152c0,0,1.218,1.158,1.218,3.297c0,4.936-4.081,5.299-5.834,5.299
						c-1.858,0-6.068-0.535-6.088-4.678c-0.021-4.23,4.595-4.445,5.789-4.445c0.299,0,0.577,0,0.577,0V53.352z M15.38,49.91
						c-0.063,3.334,4.037,3.377,4.316,3.377V46.75C19.696,46.75,15.444,46.664,15.38,49.91z"/>
					<path fill="#FFFFFF" d="M21.313,29.936h-1.182v-4.903h1.182V29.936z"/>
					<path fill="#FFFFFF" d="M26.36,10.57c0,3.076-2.74,4.38-6.063,4.38c-3.238,0-5.924-1.751-5.899-4.464
						c0.019-1.944,1.165-2.843,1.66-2.969h-5.356v-1.22c0,0,10.154,0,11.336,0C23.646,6.297,26.36,7.253,26.36,10.57z M18.884,7.518
						c-0.566,0-1.927,0.105-2.645,0.753c-0.503,0.431-0.85,1.164-0.85,2.154c0,2.113,2.231,3.298,4.954,3.278
						c2.634-0.022,4.941-0.948,4.941-3.278c0-1.939-1.601-2.907-3.021-2.907H18.884z"/>
					<path fill="#FFFFFF" d="M14.632,16.701c0,0,10.006,3.14,10.116,3.181c0.188,0.072,0.176,0.091-0.013,0.153
						c-0.113,0.037-10.104,3.169-10.104,3.169v1.243l10.801-3.434c0.604-0.255,0.855-0.57,0.855-1.056
						c0-0.489-0.246-0.806-0.855-1.063c-0.001,0-10.801-3.428-10.801-3.428V16.701z"/>
					<g>
						<path fill="#FFFFFF" d="M26.19,43.48H14.632v-1.217H26.19V43.48z"/>
						<path fill="#FFFFFF" d="M12.775,43.48h-1.255v-1.223h1.255V43.48z"/>
					</g>
					<path fill="#FFFFFF" d="M23.968,35.488c0,1.111,0.279,3.418-0.854,3.418c-1.002,0-0.875-1.645-0.875-3.247
						c0-2.544-1.502-4.081-3.89-4.081c-1.25,0-2.276,0.438-2.979,1.23v-1.357h-1.016v4.293h0.008c0,0.028-0.008,0.053-0.008,0.081
						c0,1.817,0.982,3.829,3.994,3.829c2.01,0,3.033-1.326,3.12-1.816c0,0.49,0.257,2.266,1.837,2.223
						c0.877-0.023,1.325-0.492,1.496-1.475c0.192,0.555,1.067,1.539,2.414,1.539c1.646,0,2.969-1.496,2.969-4.509
						c0-2.457-1.066-4.316-3.161-4.359C25.036,31.214,23.968,32.54,23.968,35.488z M18.349,38.5c-1.729,0-2.969-0.834-2.969-2.841
						c0-2.162,1.538-2.927,2.969-2.927c1.967,0,2.949,1.238,2.949,3.012C21.298,37.305,20.101,38.5,18.349,38.5z M29.158,35.616
						c0,2.179-0.875,3.376-2.135,3.376c-0.961,0-1.772-0.834-1.943-1.475c0,0-0.022-1.025,0-1.944
						c0.021-2.458,0.939-3.163,1.943-3.163C28.455,32.411,29.158,34.056,29.158,35.616z"/>
				</g>
			</g>
		</g>
	</g>
</g>
<g>
	<g>
		<path d="M53.138,14.911v-0.689c0.306-0.076,0.678-0.14,1.021-0.166v-3.114h-4.401v3.114c0.355,0.025,0.712,0.09,1.032,0.166v0.689
			h-3.306v-0.677c0.332-0.088,0.728-0.153,1.11-0.178V7.152c-0.383-0.026-0.778-0.089-1.11-0.179V6.297h3.306v0.689
			c-0.32,0.077-0.677,0.14-1.032,0.166v2.794h4.401V7.152c-0.344-0.026-0.716-0.089-1.021-0.166V6.297h3.292v0.676
			c-0.332,0.09-0.729,0.153-1.109,0.179v6.903c0.381,0.025,0.777,0.09,1.109,0.178v0.677H53.138z"/>
		<path d="M62.82,14.911v-0.677c0.306-0.076,0.677-0.14,1.009-0.166l-0.497-1.378h-3.611l-0.498,1.378
			c0.332,0.025,0.702,0.09,1.008,0.166v0.677h-2.986v-0.689c0.23-0.051,0.549-0.127,0.779-0.14l2.857-7.784h1.379l2.871,7.784
			c0.229,0.013,0.548,0.089,0.779,0.14v0.689H62.82z M61.915,8.76c-0.166-0.435-0.28-0.842-0.384-1.289h-0.025
			c-0.101,0.421-0.229,0.867-0.396,1.301l-1.085,2.985h2.999L61.915,8.76z"/>
	</g>
	<g>
		<path d="M73.59,7.152v4.479c0,2.259-1.173,3.407-3.433,3.407c-2.691,0-3.228-1.493-3.228-3.024V7.152
			c-0.306-0.039-0.612-0.089-0.882-0.166V6.297h3.065v0.689c-0.309,0.077-0.678,0.14-1.022,0.166v4.772
			c0,1.187,0.409,2.144,2.145,2.144c1.492,0,2.207-0.625,2.207-2.36V7.152c-0.345-0.026-0.701-0.089-1.021-0.166V6.297h3.049v0.689
			C74.19,7.063,73.897,7.114,73.59,7.152z"/>
	</g>
	<g>
		<path d="M82.11,8.441h-0.805c-0.076-0.498-0.152-0.868-0.18-1.187h-1.771v6.801c0.383,0.025,0.778,0.09,1.109,0.178v0.677h-3.381
			v-0.677c0.331-0.088,0.728-0.153,1.109-0.178V7.254h-1.773c-0.026,0.319-0.09,0.689-0.179,1.187h-0.805V6.297h6.675V8.441z"/>
		<path d="M83.091,14.911v-0.677c0.332-0.088,0.728-0.153,1.11-0.178V7.152c-0.383-0.026-0.778-0.089-1.11-0.179V6.297h5.563v1.991
			h-0.816c-0.077-0.396-0.14-0.779-0.166-1.072h-2.31v2.833H87.2c0.051-0.319,0.101-0.612,0.179-0.881h0.715v2.617h-0.715
			c-0.078-0.269-0.142-0.587-0.179-0.881h-1.838v3.063h2.322c0.039-0.332,0.102-0.715,0.179-1.097h0.816v2.042H83.091z"/>
		<path d="M93.411,14.911v-0.677c0.333-0.088,0.729-0.153,1.109-0.178V7.152c-0.381-0.026-0.776-0.089-1.109-0.179V6.297h5.563
			v1.991h-0.817c-0.075-0.396-0.139-0.779-0.165-1.072h-2.31v2.833h1.838c0.052-0.319,0.102-0.612,0.178-0.881h0.717v2.617h-0.717
			c-0.076-0.269-0.14-0.587-0.178-0.881h-1.838v3.063h2.323c0.037-0.332,0.101-0.715,0.177-1.097H99v2.042H93.411z M96.321,5.621
			L95.86,4.983l1.813-1.417l0.575,0.792L96.321,5.621z"/>
		<path d="M106.234,8.556c-0.091-0.421-0.128-0.804-0.166-1.149c-0.447-0.114-0.855-0.153-1.277-0.153
			c-1.862,0-2.704,1.467-2.704,3.381c0,2.093,0.893,3.331,2.984,3.331c0.678,0,1.455-0.179,2.005-0.447l0.075,1.072
			c-0.688,0.255-1.505,0.434-2.372,0.434c-2.642,0-3.98-1.557-3.98-4.198c0-2.667,1.301-4.619,4.248-4.619
			c0.664,0,1.365,0.102,2.018,0.255v2.093H106.234z"/>
	</g>
	<g>
		<path d="M112.247,15.038c-2.59,0-3.842-1.722-3.842-4.338c0-2.871,1.837-4.53,4.084-4.53c2.321,0,3.84,1.506,3.84,4.339
			C116.329,13.379,114.492,15.038,112.247,15.038z M112.361,7.204c-1.429,0-2.704,1.161-2.704,3.33c0,2.054,0.866,3.458,2.691,3.458
			c1.404,0,2.73-1.123,2.73-3.343C115.079,8.441,114.083,7.204,112.361,7.204z"/>
		<path d="M117.604,14.911v-0.677c0.332-0.088,0.728-0.153,1.111-0.178V7.152c-0.384-0.026-0.779-0.089-1.111-0.179V6.297h3.381
			v0.676c-0.331,0.09-0.727,0.153-1.109,0.179v6.801h2.207c0.038-0.332,0.116-0.752,0.191-1.161h0.804v2.118H117.604z"/>
		<path d="M123.981,14.911v-0.677c0.333-0.088,0.729-0.153,1.109-0.178V7.152c-0.381-0.026-0.776-0.089-1.109-0.179V6.297h5.564
			v1.991h-0.817c-0.076-0.396-0.14-0.779-0.165-1.072h-2.31v2.833h1.836c0.053-0.319,0.103-0.612,0.18-0.881h0.714v2.617h-0.714
			c-0.077-0.269-0.142-0.587-0.18-0.881h-1.836v3.063h2.321c0.039-0.332,0.103-0.715,0.178-1.097h0.818v2.042H123.981z"/>
	</g>
	<g>
		<path d="M50.764,29.209c-0.868,0-1.695-0.051-2.169-0.051h-1.11v-0.676c0.332-0.089,0.728-0.154,1.11-0.178V21.4
			c-0.383-0.025-0.778-0.089-1.11-0.179v-0.676h1.085c0.676,0,1.659-0.038,2.59-0.038c2.771,0,4.416,1.288,4.416,4.249
			C55.575,27.703,53.585,29.209,50.764,29.209z M51.059,21.464c-0.46,0-0.971,0.026-1.301,0.038v6.635
			c0.33,0.052,0.79,0.076,1.146,0.076c2.017,0,3.433-1.045,3.433-3.381C54.337,22.637,53.291,21.464,51.059,21.464z"/>
	</g>
	<g>
		<path d="M57.029,23.091c0.816-0.881,0.843-1.456,0.549-1.825c-0.358-0.459-0.063-1.148,0.562-1.148
			c0.932,0,1.366,1.607-0.611,3.42L57.029,23.091z"/>
	</g>
	<g>
		<path d="M60.99,29.159v-0.676c0.331-0.089,0.728-0.154,1.11-0.178V21.4c-0.383-0.025-0.779-0.089-1.11-0.179v-0.676h3.383v0.676
			c-0.333,0.09-0.729,0.154-1.11,0.179v6.904c0.382,0.024,0.777,0.089,1.11,0.178v0.676H60.99z"/>
		<path d="M73.687,21.413v7.746h-1.531l-3.331-5.335c-0.384-0.625-0.701-1.224-0.969-1.786c0.089,1.481,0.075,3.791,0.075,6.252
			c0.345,0.025,0.715,0.103,1.021,0.179v0.689h-3.266v-0.676c0.331-0.089,0.727-0.167,1.11-0.192V21.4
			c-0.384-0.025-0.779-0.089-1.11-0.179v-0.676h2.654l3.292,5.283c0.37,0.6,0.676,1.174,1.009,1.786
			c-0.09-1.442-0.09-3.739-0.09-6.201c-0.345-0.025-0.689-0.102-0.995-0.179v-0.689h3.011v0.689
			C74.299,21.311,73.993,21.375,73.687,21.413z"/>
	</g>
	<g>
		<path d="M82.96,25.623v3.152c-0.854,0.32-1.9,0.499-2.844,0.499c-2.604,0-4.275-1.583-4.275-4.249
			c0-2.654,1.761-4.594,4.631-4.594c0.792,0,1.558,0.115,2.322,0.306v2.029h-0.842c-0.076-0.421-0.127-0.792-0.153-1.137
			c-0.484-0.127-0.97-0.191-1.429-0.191c-1.772,0-3.278,1.136-3.278,3.445c0,2.144,1.249,3.369,3.188,3.369
			c0.575,0,1.06-0.09,1.519-0.229v-2.4c-0.381-0.024-0.777-0.088-1.098-0.166v-0.689h3.102v0.702
			C83.533,25.535,83.254,25.585,82.96,25.623z"/>
		<path d="M84.898,29.159v-0.676c0.332-0.089,0.728-0.154,1.109-0.178V21.4c-0.382-0.025-0.777-0.089-1.109-0.179v-0.676h5.563
			v1.991h-0.817c-0.075-0.396-0.14-0.779-0.166-1.072h-2.31v2.833h1.839c0.051-0.32,0.101-0.613,0.178-0.881h0.716v2.616h-0.716
			c-0.077-0.268-0.141-0.587-0.178-0.88h-1.839v3.061h2.323c0.037-0.332,0.102-0.714,0.178-1.096h0.817v2.041H84.898z
			 M87.808,19.869l-0.461-0.638l1.813-1.417l0.574,0.791L87.808,19.869z"/>
	</g>
	<g>
		<path d="M100.046,21.413v7.746h-1.531l-3.33-5.335c-0.384-0.625-0.702-1.224-0.97-1.786c0.089,1.481,0.075,3.791,0.075,6.252
			c0.345,0.025,0.716,0.103,1.021,0.179v0.689h-3.266v-0.676c0.332-0.089,0.727-0.167,1.11-0.192V21.4
			c-0.384-0.025-0.778-0.089-1.11-0.179v-0.676h2.654l3.293,5.283c0.369,0.6,0.676,1.174,1.008,1.786
			c-0.09-1.442-0.09-3.739-0.09-6.201c-0.345-0.025-0.688-0.102-0.995-0.179v-0.689h3.011v0.689
			C100.658,21.311,100.354,21.375,100.046,21.413z"/>
		<path d="M102.238,29.159v-0.676c0.333-0.089,0.729-0.154,1.109-0.178V21.4c-0.381-0.025-0.776-0.089-1.109-0.179v-0.676h3.383
			v0.676c-0.332,0.09-0.728,0.154-1.11,0.179v6.904c0.383,0.024,0.778,0.089,1.11,0.178v0.676H102.238z"/>
	</g>
	<g>
		<path d="M106.918,29.159v-0.676c0.332-0.089,0.727-0.154,1.11-0.178V21.4c-0.384-0.025-0.778-0.089-1.11-0.179v-0.676h5.563v1.991
			h-0.816c-0.077-0.396-0.141-0.779-0.165-1.072h-2.309v2.833h1.835c0.051-0.32,0.104-0.613,0.18-0.881h0.714v2.616h-0.714
			c-0.076-0.268-0.141-0.587-0.18-0.88h-1.835v3.061h2.32c0.039-0.332,0.104-0.714,0.179-1.096h0.816v2.041H106.918z"/>
		<path d="M119.064,29.159l-2.501-3.867h-0.217v3.013c0.319,0.024,0.664,0.089,0.956,0.166v0.689h-3.228v-0.676
			c0.333-0.089,0.729-0.154,1.109-0.178V21.4c-0.381-0.025-0.776-0.089-1.109-0.179v-0.676h0.995c0.332,0,1.226-0.051,2.271-0.051
			c1.697,0,2.923,0.6,2.923,2.246c0,1.392-1.06,2.246-2.463,2.4c0.19,0.242,0.395,0.51,0.561,0.777l1.622,2.373
			c0.293,0.038,0.637,0.089,0.98,0.166v0.702H119.064z M117.137,21.451c-0.305,0-0.548,0.014-0.79,0.026v2.936
			c0.141,0.012,0.396,0.024,0.739,0.024c1.238,0,1.953-0.625,1.953-1.543C119.039,21.86,118.375,21.451,117.137,21.451z"/>
		<path d="M121.972,29.159v-0.676c0.331-0.089,0.727-0.154,1.11-0.178V21.4c-0.384-0.025-0.779-0.089-1.11-0.179v-0.676h3.383v0.676
			c-0.333,0.09-0.729,0.154-1.11,0.179v6.904c0.382,0.024,0.777,0.089,1.11,0.178v0.676H121.972z"/>
	</g>
	<g>
		<path d="M126.674,29.159v-0.676c0.331-0.089,0.727-0.154,1.11-0.178V21.4c-0.384-0.025-0.779-0.089-1.11-0.179v-0.676h5.563v1.991
			h-0.816c-0.077-0.396-0.141-0.779-0.165-1.072h-2.31v2.833h1.836c0.051-0.32,0.103-0.613,0.18-0.881h0.714v2.616h-0.714
			c-0.077-0.268-0.141-0.587-0.18-0.88h-1.836v3.061h2.321c0.038-0.332,0.104-0.714,0.179-1.096h0.817v2.041H126.674z"/>
		<path d="M136.995,29.159v-0.676c0.331-0.089,0.727-0.154,1.109-0.178V21.4c-0.383-0.025-0.778-0.089-1.109-0.179v-0.676h5.563
			v1.991h-0.815c-0.078-0.396-0.141-0.779-0.166-1.072h-2.311v2.833h1.838c0.051-0.32,0.101-0.613,0.18-0.881h0.714v2.616h-0.714
			c-0.079-0.268-0.142-0.587-0.18-0.88h-1.838v3.061h2.322c0.039-0.332,0.103-0.714,0.179-1.096h0.817v2.041H136.995z"/>
		<path d="M150.71,22.689h-0.804c-0.076-0.499-0.153-0.867-0.179-1.187h-1.773v6.802c0.383,0.024,0.778,0.089,1.109,0.178v0.676
			h-3.382v-0.676c0.333-0.089,0.728-0.154,1.111-0.178v-6.802h-1.773c-0.025,0.32-0.09,0.688-0.18,1.187h-0.804v-2.144h6.674V22.689
			z"/>
		<path d="M158.134,29.209c-0.867,0-1.697-0.051-2.168-0.051h-1.111v-0.676c0.332-0.089,0.728-0.154,1.111-0.178V21.4
			c-0.384-0.025-0.779-0.089-1.111-0.179v-0.676h1.084c0.677,0,1.66-0.038,2.591-0.038c2.769,0,4.416,1.288,4.416,4.249
			C162.945,27.703,160.954,29.209,158.134,29.209z M158.428,21.464c-0.459,0-0.971,0.026-1.302,0.038v6.635
			c0.331,0.052,0.791,0.076,1.148,0.076c2.016,0,3.433-1.045,3.433-3.381C161.707,22.637,160.659,21.464,158.428,21.464z"/>
		<path d="M164.269,29.159v-0.676c0.332-0.089,0.728-0.154,1.11-0.178V21.4c-0.383-0.025-0.778-0.089-1.11-0.179v-0.676h5.563v1.991
			h-0.816c-0.077-0.396-0.14-0.779-0.165-1.072h-2.309v2.833h1.835c0.052-0.32,0.104-0.613,0.18-0.881h0.714v2.616h-0.714
			c-0.076-0.268-0.141-0.587-0.18-0.88h-1.835v3.061h2.321c0.038-0.332,0.103-0.714,0.178-1.096h0.816v2.041H164.269z"/>
		<path d="M181.901,25.623v3.152c-0.854,0.32-1.9,0.499-2.846,0.499c-2.602,0-4.274-1.583-4.274-4.249
			c0-2.654,1.761-4.594,4.633-4.594c0.79,0,1.557,0.115,2.321,0.306v2.029h-0.842c-0.076-0.421-0.127-0.792-0.152-1.137
			c-0.485-0.127-0.97-0.191-1.43-0.191c-1.773,0-3.279,1.136-3.279,3.445c0,2.144,1.252,3.369,3.19,3.369
			c0.574,0,1.06-0.09,1.519-0.229v-2.4c-0.384-0.024-0.779-0.088-1.098-0.166v-0.689h3.101v0.702
			C182.477,25.535,182.195,25.585,181.901,25.623z"/>
		<path d="M183.84,29.159v-0.676c0.331-0.089,0.728-0.154,1.109-0.178V21.4c-0.382-0.025-0.778-0.089-1.109-0.179v-0.676h5.563
			v1.991h-0.816c-0.075-0.396-0.141-0.779-0.166-1.072h-2.31v2.833h1.838c0.05-0.32,0.103-0.613,0.179-0.881h0.714v2.616h-0.714
			c-0.076-0.268-0.141-0.587-0.179-0.88h-1.838v3.061h2.322c0.039-0.332,0.103-0.714,0.179-1.096h0.817v2.041H183.84z"/>
		<path d="M193.255,29.273c-0.663,0-1.301-0.076-1.837-0.217v-2.041h0.842c0.077,0.421,0.128,0.803,0.165,1.135
			c0.269,0.063,0.602,0.115,0.894,0.115c1.047,0,1.902-0.42,1.902-1.479c0-1.94-3.931-1.149-3.931-3.919
			c0-1.416,1.123-2.436,3.049-2.436c0.602,0,1.098,0.063,1.66,0.166v1.978h-0.843c-0.076-0.408-0.127-0.792-0.153-1.11
			c-0.178-0.038-0.472-0.064-0.714-0.064c-1.175,0-1.774,0.537-1.774,1.339c0,1.863,3.931,1.174,3.931,3.879
			C196.445,28.163,195.232,29.273,193.255,29.273z"/>
	</g>
	<g>
		<path d="M204.2,22.689h-0.805c-0.077-0.499-0.152-0.867-0.179-1.187h-1.773v6.802c0.383,0.024,0.777,0.089,1.11,0.178v0.676
			h-3.382v-0.676c0.332-0.089,0.728-0.154,1.109-0.178v-6.802h-1.772c-0.025,0.32-0.09,0.688-0.18,1.187h-0.803v-2.144h6.674V22.689
			z"/>
		<path d="M205.18,29.159v-0.676c0.332-0.089,0.728-0.154,1.109-0.178V21.4c-0.382-0.025-0.777-0.089-1.109-0.179v-0.676h3.382
			v0.676c-0.332,0.09-0.728,0.154-1.11,0.179v6.904c0.383,0.024,0.778,0.089,1.11,0.178v0.676H205.18z"/>
		<path d="M213.678,29.285c-2.59,0-3.841-1.721-3.841-4.338c0-2.872,1.837-4.529,4.084-4.529c2.322,0,3.84,1.505,3.84,4.339
			C217.761,27.628,215.924,29.285,213.678,29.285z M213.792,21.451c-1.429,0-2.704,1.162-2.704,3.33
			c0,2.056,0.867,3.459,2.692,3.459c1.404,0,2.73-1.123,2.73-3.345C216.511,22.689,215.516,21.451,213.792,21.451z"/>
		<path d="M227.036,21.413v7.746h-1.533l-3.329-5.335c-0.383-0.625-0.702-1.224-0.97-1.786c0.09,1.481,0.076,3.791,0.076,6.252
			c0.345,0.025,0.715,0.103,1.021,0.179v0.689h-3.267v-0.676c0.331-0.089,0.728-0.167,1.11-0.192V21.4
			c-0.383-0.025-0.779-0.089-1.11-0.179v-0.676h2.654l3.292,5.283c0.37,0.6,0.676,1.174,1.008,1.786
			c-0.091-1.442-0.091-3.739-0.091-6.201c-0.344-0.025-0.688-0.102-0.994-0.179v-0.689h3.012v0.689
			C227.647,21.311,227.342,21.375,227.036,21.413z"/>
	</g>
	<g>
		<path d="M50.764,43.438c-0.868,0-1.695-0.051-2.169-0.051h-1.11v-0.676c0.332-0.09,0.728-0.154,1.11-0.179v-6.904
			c-0.383-0.024-0.778-0.088-1.11-0.179v-0.676h1.085c0.676,0,1.659-0.038,2.59-0.038c2.771,0,4.416,1.288,4.416,4.25
			C55.575,41.932,53.585,43.438,50.764,43.438z M51.059,35.693c-0.46,0-0.971,0.026-1.301,0.038v6.635
			c0.33,0.051,0.79,0.076,1.146,0.076c2.017,0,3.433-1.045,3.433-3.382C54.337,36.866,53.291,35.693,51.059,35.693z"/>
		<path d="M64.429,35.628v4.48c0,2.258-1.174,3.406-3.433,3.406c-2.692,0-3.229-1.492-3.229-3.024v-4.862
			c-0.306-0.038-0.613-0.088-0.88-0.167v-0.688h3.063v0.688c-0.307,0.078-0.677,0.142-1.021,0.167v4.773
			c0,1.187,0.408,2.144,2.145,2.144c1.492,0,2.206-0.625,2.206-2.361v-4.555c-0.344-0.024-0.7-0.088-1.02-0.167v-0.688h3.049v0.688
			C65.028,35.54,64.735,35.59,64.429,35.628z"/>
		<path d="M75.195,37.031c-0.09-0.419-0.128-0.803-0.166-1.147c-0.446-0.115-0.855-0.153-1.275-0.153
			c-1.863,0-2.705,1.466-2.705,3.381c0,2.092,0.894,3.33,2.985,3.33c0.677,0,1.455-0.179,2.004-0.446l0.076,1.07
			c-0.689,0.258-1.506,0.436-2.374,0.436c-2.641,0-3.98-1.557-3.98-4.198c0-2.667,1.302-4.619,4.247-4.619
			c0.664,0,1.367,0.101,2.018,0.255v2.091H75.195z"/>
	</g>
	<g>
		<path d="M82.506,43.387v-0.676c0.308-0.076,0.678-0.141,1.008-0.166l-0.496-1.378h-3.612l-0.497,1.378
			c0.332,0.025,0.702,0.09,1.009,0.166v0.676H76.93v-0.688c0.231-0.051,0.549-0.128,0.778-0.142l2.859-7.783h1.378l2.871,7.783
			c0.23,0.014,0.549,0.091,0.778,0.142v0.688H82.506z M81.601,37.236c-0.166-0.435-0.281-0.842-0.382-1.288h-0.025
			c-0.104,0.421-0.229,0.866-0.396,1.301l-1.084,2.985h2.999L81.601,37.236z"/>
		<path d="M94.398,35.642v7.745h-1.532l-3.332-5.334c-0.381-0.626-0.7-1.225-0.969-1.786c0.09,1.48,0.077,3.791,0.077,6.253
			c0.345,0.025,0.715,0.102,1.021,0.179v0.688h-3.267v-0.676c0.332-0.09,0.728-0.166,1.109-0.191v-6.891
			c-0.382-0.024-0.777-0.088-1.109-0.179v-0.676h2.655l3.29,5.284c0.372,0.599,0.678,1.174,1.009,1.785
			c-0.089-1.441-0.089-3.739-0.089-6.201c-0.346-0.025-0.69-0.102-0.995-0.18v-0.688h3.011v0.688
			C95.01,35.54,94.703,35.604,94.398,35.642z"/>
		<path d="M102.918,36.917h-0.803c-0.076-0.498-0.153-0.866-0.178-1.186h-1.775v6.801c0.383,0.024,0.778,0.089,1.111,0.179v0.676
			h-3.382v-0.676c0.332-0.09,0.729-0.154,1.11-0.179v-6.801h-1.774c-0.024,0.32-0.088,0.688-0.179,1.186h-0.802v-2.144h6.671V36.917
			z"/>
	</g>
	<g>
		<path d="M107.579,43.515c-2.59,0-3.842-1.722-3.842-4.34c0-2.87,1.838-4.528,4.083-4.528c2.322,0,3.841,1.505,3.841,4.338
			C111.661,41.856,109.824,43.515,107.579,43.515z M107.694,35.679c-1.43,0-2.705,1.163-2.705,3.331
			c0,2.056,0.866,3.459,2.691,3.459c1.403,0,2.73-1.122,2.73-3.345C110.411,36.917,109.415,35.679,107.694,35.679z"/>
		<path d="M120.936,35.642v7.745h-1.53l-3.329-5.334c-0.384-0.626-0.704-1.225-0.972-1.786c0.089,1.48,0.077,3.791,0.077,6.253
			c0.345,0.025,0.716,0.102,1.021,0.179v0.688h-3.267v-0.676c0.333-0.09,0.728-0.166,1.11-0.191v-6.891
			c-0.383-0.024-0.777-0.088-1.11-0.179v-0.676h2.653l3.294,5.284c0.368,0.599,0.677,1.174,1.007,1.785
			c-0.089-1.441-0.089-3.739-0.089-6.201c-0.345-0.025-0.688-0.102-0.996-0.18v-0.688h3.013v0.688
			C121.549,35.54,121.243,35.604,120.936,35.642z"/>
		<path d="M129.354,43.438c-0.866,0-1.696-0.051-2.168-0.051h-1.11v-0.676c0.332-0.09,0.728-0.154,1.11-0.179v-6.904
			c-0.383-0.024-0.778-0.088-1.11-0.179v-0.676h1.084c0.676,0,1.66-0.038,2.591-0.038c2.77,0,4.417,1.288,4.417,4.25
			C134.167,41.932,132.175,43.438,129.354,43.438z M129.648,35.693c-0.46,0-0.971,0.026-1.302,0.038v6.635
			c0.331,0.051,0.791,0.076,1.149,0.076c2.015,0,3.433-1.045,3.433-3.382C132.929,36.866,131.881,35.693,129.648,35.693z"/>
		<path d="M135.491,43.387v-0.676c0.331-0.09,0.727-0.154,1.109-0.179v-6.904c-0.383-0.024-0.778-0.088-1.109-0.179v-0.676h5.563
			v1.991h-0.815c-0.078-0.396-0.141-0.779-0.166-1.072h-2.311v2.833h1.838c0.051-0.319,0.101-0.611,0.18-0.881h0.714v2.616h-0.714
			c-0.079-0.268-0.142-0.587-0.18-0.881h-1.838v3.063h2.322c0.039-0.332,0.103-0.715,0.179-1.096h0.817v2.04H135.491z"/>
		<path d="M149.192,40.313c0.179,0.496,0.396,1.148,0.574,1.785h0.012c0.154-0.612,0.347-1.187,0.589-1.875l1.657-4.606
			c-0.344-0.026-0.7-0.089-1.008-0.167v-0.676h2.986v0.688c-0.203,0.065-0.535,0.128-0.765,0.142l-2.847,7.783h-1.313l-2.769-7.783
			c-0.243-0.014-0.562-0.077-0.779-0.142v-0.688h3.076v0.676c-0.295,0.077-0.664,0.141-1.009,0.167L149.192,40.313z"/>
	</g>
	<g>
		<path d="M158.746,43.387v-0.676c0.308-0.076,0.678-0.141,1.008-0.166l-0.496-1.378h-3.612l-0.497,1.378
			c0.33,0.025,0.702,0.09,1.009,0.166v0.676h-2.987v-0.688c0.23-0.051,0.549-0.128,0.778-0.142l2.859-7.783h1.378l2.871,7.783
			c0.229,0.014,0.549,0.091,0.777,0.142v0.688H158.746z M157.84,37.236c-0.165-0.435-0.28-0.842-0.381-1.288h-0.026
			c-0.103,0.421-0.23,0.866-0.396,1.301l-1.084,2.985h2.998L157.84,37.236z"/>
		<path d="M169.527,35.628v4.48c0,2.258-1.175,3.406-3.433,3.406c-2.693,0-3.228-1.492-3.228-3.024v-4.862
			c-0.308-0.038-0.612-0.088-0.881-0.167v-0.688h3.063v0.688c-0.308,0.078-0.677,0.142-1.022,0.167v4.773
			c0,1.187,0.409,2.144,2.146,2.144c1.492,0,2.206-0.625,2.206-2.361v-4.555c-0.344-0.024-0.701-0.088-1.02-0.167v-0.688h3.049
			v0.688C170.127,35.54,169.834,35.59,169.527,35.628z"/>
	</g>
	<g>
		<path d="M174.904,43.438c-0.867,0-1.696-0.051-2.169-0.051h-1.111v-0.676c0.332-0.09,0.729-0.154,1.111-0.179v-6.904
			c-0.383-0.024-0.779-0.088-1.111-0.179v-0.676h1.085c0.678,0,1.659-0.038,2.591-0.038c2.77,0,4.415,1.288,4.415,4.25
			C179.715,41.932,177.726,43.438,174.904,43.438z M175.198,35.693c-0.46,0-0.971,0.026-1.301,0.038v6.635
			c0.33,0.051,0.791,0.076,1.147,0.076c2.017,0,3.433-1.045,3.433-3.382C178.478,36.866,177.431,35.693,175.198,35.693z"/>
	</g>
	<g>
		<path d="M57.169,59.069l-1.734,5.499H54.12l-1.25-3.739c-0.14-0.396-0.255-0.815-0.357-1.263H52.5
			c-0.14,0.563-0.294,1.06-0.46,1.594l-1.059,3.408h-1.327l-1.633-5.499c-0.281-0.024-0.562-0.089-0.818-0.152v-0.69h2.922v0.69
			c-0.267,0.075-0.572,0.128-0.88,0.14l0.779,2.847c0.141,0.521,0.294,1.033,0.396,1.44h0.014c0.114-0.535,0.267-1.06,0.434-1.559
			l1.135-3.559h1.187l1.148,3.559c0.242,0.755,0.345,1.124,0.447,1.559h0.012c0.115-0.446,0.229-0.815,0.396-1.392l0.83-2.896
			c-0.293-0.012-0.612-0.064-0.881-0.14v-0.69h2.847v0.69C57.731,58.98,57.449,59.045,57.169,59.069z"/>
		<path d="M68.346,59.069l-1.735,5.499h-1.313l-1.252-3.739c-0.141-0.396-0.255-0.815-0.357-1.263h-0.013
			c-0.14,0.563-0.292,1.06-0.458,1.594l-1.061,3.408h-1.327l-1.633-5.499c-0.28-0.024-0.561-0.089-0.815-0.152v-0.69h2.921v0.69
			c-0.268,0.075-0.574,0.128-0.881,0.14l0.779,2.847c0.14,0.521,0.293,1.033,0.396,1.44h0.013c0.114-0.535,0.268-1.06,0.435-1.559
			l1.135-3.559h1.187l1.148,3.559c0.243,0.755,0.344,1.124,0.447,1.559h0.013c0.115-0.446,0.229-0.815,0.396-1.392l0.829-2.896
			c-0.295-0.012-0.612-0.064-0.88-0.14v-0.69h2.844v0.69C68.908,58.98,68.626,59.045,68.346,59.069z"/>
		<path d="M79.521,59.069l-1.734,5.499h-1.314l-1.251-3.739c-0.141-0.396-0.255-0.815-0.357-1.263h-0.013
			c-0.14,0.563-0.294,1.06-0.46,1.594l-1.059,3.408h-1.326l-1.634-5.499c-0.28-0.024-0.562-0.089-0.817-0.152v-0.69h2.922v0.69
			c-0.267,0.075-0.573,0.128-0.88,0.14l0.779,2.847c0.14,0.521,0.294,1.033,0.396,1.44h0.014c0.114-0.535,0.267-1.06,0.433-1.559
			l1.136-3.559h1.186l1.149,3.559c0.241,0.755,0.344,1.124,0.446,1.559h0.013c0.114-0.446,0.229-0.815,0.396-1.392l0.83-2.896
			c-0.293-0.012-0.612-0.064-0.882-0.14v-0.69h2.848v0.69C80.081,58.98,79.801,59.045,79.521,59.069z"/>
	</g>
	<g>
		<path d="M82.177,63.893c0,0.435-0.357,0.791-0.791,0.791c-0.436,0-0.791-0.356-0.791-0.791s0.355-0.791,0.791-0.791
			C81.819,63.102,82.177,63.458,82.177,63.893z"/>
		<path d="M88.493,64.568v-4.097c0-0.893-0.258-1.415-1.087-1.415c-1.045,0-1.811,1.06-1.811,2.463v2.194
			c0.357,0.024,0.714,0.089,1.034,0.167v0.688h-3.28v-0.676c0.332-0.09,0.728-0.154,1.109-0.179v-7.567
			c-0.306-0.052-0.74-0.1-1.109-0.127v-0.677c0.639-0.075,1.519-0.127,2.246-0.09v3c0,0.408-0.025,0.93-0.103,1.263l0.025,0.012
			c0.37-0.866,1.148-1.428,2.207-1.428c1.455,0,1.902,0.905,1.902,2.029v3.585c0.369,0.024,0.765,0.089,1.071,0.179v0.676H88.493z"
			/>
		<path d="M97.052,61.327h-4.147c-0.05,1.696,0.651,2.425,2.004,2.425c0.65,0,1.341-0.152,1.851-0.396l0.102,0.932
			c-0.611,0.254-1.353,0.396-2.145,0.396c-1.951,0-2.999-1.021-2.999-3.254c0-1.902,1.035-3.318,2.834-3.318
			c1.786,0,2.54,1.214,2.54,2.669C97.091,60.931,97.077,61.109,97.052,61.327z M94.5,58.954c-0.829,0-1.416,0.625-1.545,1.557h2.962
			C95.941,59.579,95.394,58.954,94.5,58.954z"/>
		<path d="M98.287,64.568v-0.676c0.333-0.09,0.728-0.154,1.11-0.179V59.12c-0.306-0.051-0.739-0.103-1.11-0.128v-0.676
			c0.64-0.078,1.519-0.126,2.259-0.09v5.487c0.37,0.024,0.754,0.089,1.072,0.179v0.676H98.287z M99.985,57.182
			c-0.421,0-0.766-0.333-0.766-0.754c0-0.408,0.345-0.74,0.766-0.74c0.409,0,0.753,0.32,0.753,0.74
			C100.738,56.837,100.395,57.182,99.985,57.182z"/>
		<path d="M105.319,67.875c-1.634,0-2.668-0.651-2.668-1.865c0-0.753,0.472-1.353,1.046-1.646c-0.384-0.177-0.625-0.51-0.625-0.93
			c0-0.446,0.28-0.854,0.701-1.071c-0.586-0.332-0.931-0.984-0.931-1.812c0-1.329,1.009-2.439,2.794-2.439
			c0.346,0,0.677,0.04,0.995,0.115h2.157v0.905h-1.071c0.331,0.257,0.535,0.703,0.535,1.238c0,1.353-0.932,2.36-2.782,2.36
			c-0.255,0-0.573-0.023-0.79-0.088c-0.281,0.127-0.396,0.332-0.396,0.535c0,0.359,0.317,0.498,1.085,0.498h1.174
			c1.377,0,2.155,0.664,2.155,1.774C108.699,66.815,107.309,67.875,105.319,67.875z M106.225,64.633h-1.25c-0.115,0-0.281,0-0.396,0
			c-0.497,0.256-0.777,0.677-0.777,1.162c0,0.751,0.713,1.159,1.695,1.159c1.302,0,2.055-0.549,2.055-1.353
			C107.551,65.016,107.118,64.633,106.225,64.633z M105.587,58.966c-1.009,0-1.609,0.628-1.609,1.482
			c0,0.942,0.574,1.455,1.57,1.455c0.957,0,1.57-0.513,1.57-1.455C107.118,59.527,106.568,58.966,105.587,58.966z"/>
		<path d="M110.063,61.825v-0.919h3.012v0.919H110.063z"/>
		<path d="M120.169,59.069l-2.004,5.499h-1.378l-1.965-5.499c-0.282-0.024-0.563-0.089-0.817-0.152v-0.69h2.948v0.69
			c-0.281,0.075-0.587,0.128-0.895,0.14l1.059,3.112c0.143,0.41,0.27,0.806,0.384,1.238h0.014c0.115-0.408,0.242-0.828,0.37-1.212
			l1.097-3.139c-0.317-0.012-0.626-0.064-0.906-0.14v-0.69h2.909v0.69C120.729,58.98,120.449,59.045,120.169,59.069z"/>
	</g>
	<g>
		<path d="M125.896,64.568c0-0.355,0.027-0.917,0.104-1.289l-0.026-0.012c-0.357,0.854-1.135,1.416-2.13,1.416
			c-1.558,0-2.336-1.135-2.336-2.985c0-2.222,1.276-3.561,3.279-3.561c0.346,0,0.689,0.025,1.072,0.064v-2.056
			c-0.306-0.052-0.739-0.1-1.109-0.127v-0.677c0.637-0.075,1.519-0.127,2.258-0.09v8.423c0.307,0.051,0.728,0.103,1.071,0.127v0.676
			C127.479,64.557,126.6,64.607,125.896,64.568z M125.859,59.183c-0.383-0.102-0.766-0.138-1.123-0.138
			c-1.213,0-2.016,0.727-2.016,2.55c0,1.365,0.446,2.144,1.404,2.144c1.146,0,1.734-1.34,1.734-2.448V59.183z"/>
		<path d="M130.833,63.893c0,0.435-0.356,0.791-0.791,0.791c-0.434,0-0.79-0.356-0.79-0.791s0.356-0.791,0.79-0.791
			C130.477,63.102,130.833,63.458,130.833,63.893z"/>
		<path d="M135.133,64.657c-1.568,0-2.871-0.714-2.871-3.049c0-2.042,1.035-3.471,3.19-3.471c0.499,0,1.072,0.076,1.52,0.218v1.849
			h-0.716c-0.075-0.369-0.127-0.728-0.166-1.033c-0.217-0.075-0.511-0.114-0.791-0.114c-1.187,0-1.837,0.933-1.837,2.361
			c0,1.289,0.421,2.258,1.914,2.258c0.548,0,1.122-0.127,1.556-0.344l0.078,0.995C136.551,64.493,135.899,64.657,135.133,64.657z"/>
		<path d="M143.082,64.568v-4.097c0-0.893-0.255-1.415-1.084-1.415c-1.048,0-1.812,1.06-1.812,2.463v2.194
			c0.356,0.024,0.713,0.089,1.032,0.167v0.688h-3.278v-0.676c0.332-0.09,0.728-0.154,1.109-0.179v-7.567
			c-0.306-0.052-0.74-0.1-1.109-0.127v-0.677c0.637-0.075,1.519-0.127,2.246-0.09v3c0,0.408-0.027,0.93-0.103,1.263l0.024,0.012
			c0.371-0.866,1.149-1.428,2.208-1.428c1.454,0,1.9,0.905,1.9,2.029v3.585c0.372,0.024,0.768,0.089,1.072,0.179v0.676H143.082z"/>
	</g>
</g>
</svg>
