<?xml version="1.0" encoding="UTF-8" standalone="no"?>
<svg width="96px" height="200px" viewBox="0 0 96 200" version="1.1" xmlns="http://www.w3.org/2000/svg">
    <!-- Generator: sketchtool 3.8.3 (29802) - http://www.bohemiancoding.com/sketch -->
    <title>BB7D4471-1570-4959-8ADD-A91E468E82BE</title>
    <desc>Created with sketchtool.</desc>
    <defs></defs>
    <g id="Mockups" stroke="none" stroke-width="1" fill="none" fill-rule="evenodd">
        <g id="Pages/Home/1.1-Home---LG+-1920W" transform="translate(0.000000, -96.000000)">
            <g id="Logo-heig-vd" transform="translate(0.000000, 96.000000)">
                <g id="Logo">
                    <polygon id="Fill-1" fill="#E30613" points="0 199.020004 95.9978844 199.020004 95.9978844 0 0 0"></polygon>
                    <g id="heig-vd" transform="translate(30.609060, 17.219177)" fill="#FFFFFF">
                        <path d="M43.557797,144.511776 L22.8282272,144.511776 C18.2127911,144.511776 13.3628358,145.238805 13.3628358,152.23132 C13.3628358,154.871326 14.0809,156.429244 15.098762,157.617609 C17.0740429,159.953279 20.3694014,160.431523 22.7025055,160.431523 L43.557797,160.431523 L43.557797,163.851696 L0.229756324,163.851696 L0.229756324,160.431523 L15.7007754,160.431523 C13.9624315,160.078878 10.3648574,157.202165 10.3648574,151.637137 C10.3648574,147.330521 11.9798974,144.270239 14.0809,142.895889 C16.3559787,141.335556 19.0469061,141.096434 22.7025055,141.096434 L43.557797,141.096434 L43.557797,144.511776 Z" id="Fill-2"></path>
                        <path d="M13.2395318,122.780392 C13.063038,132.120653 24.5641534,132.241422 25.3450784,132.241422 L25.3450784,113.925621 C25.3450784,113.925621 13.4208612,113.684084 13.2395318,122.780392 L13.2395318,122.780392 Z M28.2173351,132.422575 L29.3585011,132.422575 C32.3540617,132.241422 40.6831226,131.398455 40.6831226,121.050982 C40.6831226,114.729942 36.1716487,111.500583 36.1716487,111.500583 L40.3833248,111.928105 C40.3833248,111.928105 43.8019872,115.174371 43.8019872,121.16692 C43.8019872,134.994951 32.3540617,136.01424 27.4388278,136.01424 C22.2262138,136.01424 10.4204651,134.511876 10.3648574,122.905991 C10.3044143,111.053739 23.251329,110.45231 26.5998774,110.45231 L28.2173351,110.45231 L28.2173351,132.422575 Z" id="Fill-4"></path>
                        <polygon id="Fill-6" points="29.8766194 66.8141847 26.5643369 66.8141847 26.5643369 53.0755228 29.8766194 53.0755228"></polygon>
                        <path d="M23.0663731,4.0023173 C21.4779281,4.0023173 17.6651765,4.29699324 15.6536297,6.11094103 C14.2416786,7.32104468 13.2673357,9.37411476 13.2673357,12.146967 C13.2673357,18.067055 19.5244067,21.3881978 27.1595806,21.3302287 C34.5481467,21.2674289 41.0203952,18.6757299 41.0203952,12.146967 C41.0203952,6.71478517 36.5306808,4.0023173 32.5486885,4.0023173 L23.0663731,4.0023173 Z M44.0352976,12.5551657 C44.0352976,21.1732292 36.3493514,24.827694 27.033859,24.827694 C17.9528857,24.827694 10.4192562,19.9196488 10.4893702,12.3184588 C10.5401424,6.87178464 13.7532983,4.35496227 15.1434899,4.0023173 L0.122167584,4.0023173 L0.122167584,0.582144091 L31.912827,0.582144091 C36.4243009,0.582144091 44.0352976,3.26079669 44.0352976,12.5551657 L44.0352976,12.5551657 Z" id="Fill-8"></path>
                        <path d="M11.1426394,29.7328407 C11.1426394,29.7328407 39.2051676,38.5296421 39.5122186,38.6455802 C40.0417003,38.8484718 40.0054344,38.9016101 39.4783705,39.0755172 C39.1592308,39.1793784 11.1426394,47.9568568 11.1426394,47.9568568 L11.1426394,51.4374144 L41.4318919,41.8169696 C43.1267167,41.1020181 43.8302746,40.2204057 43.8302746,38.8581333 C43.8302746,37.4886148 43.1412231,36.5997562 41.4318919,35.879974 L11.1426394,26.2764368 L11.1426394,29.7328407 Z" id="Fill-9"></path>
                        <polygon id="Fill-10" points="43.5585223 104.766996 11.14409 104.766996 11.14409 101.356485 43.5585223 101.356485"></polygon>
                        <polygon id="Fill-11" points="5.93631145 104.766996 2.41610459 104.766996 2.41610459 101.339577 5.93631145 101.339577"></polygon>
                        <path d="M51.8827478,82.7307915 C51.8827478,88.8344481 49.4263397,92.1894061 45.8940442,92.1894061 C43.1982814,92.1894061 40.9256204,89.8513216 40.4469109,88.0566969 C40.4469109,88.0566969 40.3816324,85.1848141 40.4469109,82.6100227 C40.5049363,75.7237842 43.0773952,73.7480061 45.8940442,73.7480061 C49.9123023,73.7480061 51.8827478,78.3565446 51.8827478,82.7307915 M21.5669003,90.8102261 C16.7193627,90.8102261 13.2402572,88.474557 13.2402572,82.8515604 C13.2402572,76.793796 17.5558954,74.6489416 21.5669003,74.6489416 C27.0817299,74.6489416 29.8379358,78.1198377 29.8379358,83.0882673 C29.8379358,87.4625142 26.4797165,90.8102261 21.5669003,90.8102261 M37.3256286,82.3733158 C37.3256286,85.4867362 38.1089713,91.9478685 34.9272459,91.9478685 C32.11785,91.9478685 32.4756732,87.3417454 32.4756732,82.8515604 C32.4756732,75.7237842 28.2639972,71.4147524 21.5669003,71.4147524 C18.0611998,71.4147524 15.1841077,72.644179 13.2136622,74.8639101 L13.2136622,71.059692 L10.363165,71.059692 L10.363165,83.0882673 L10.3873423,83.0882673 C10.3873423,83.1703901 10.363165,83.2380206 10.363165,83.3153127 C10.363165,88.4093418 13.1217887,94.0468307 21.5669003,94.0468307 C27.2026161,94.0468307 30.0748728,90.3271508 30.3166453,88.9552169 C30.3166453,90.3271508 31.0371272,95.3028265 35.4688162,95.1820577 C37.927642,95.1168425 39.1848587,93.8028777 39.6635682,91.0517638 C40.2027207,92.6048509 42.6591288,95.3632109 46.4331968,95.3632109 C51.0486328,95.3632109 54.7598399,91.1725326 54.7598399,82.7307915 C54.7598399,75.844553 51.7691147,70.6370011 45.8940442,70.5162323 C40.3211892,70.3978788 37.3256286,74.112728 37.3256286,82.3733158" id="Fill-12"></path>
                    </g>
                </g>
            </g>
        </g>
    </g>
</svg>